<svg width="75" height="38" viewBox="0 0 75 38" fill="none" xmlns="http://www.w3.org/2000/svg">
<rect width="31" height="3" fill="#477A71"/>
<path d="M45 35H75V38H45V35Z" fill="#477A71"/>
<rect y="3" width="3" height="27" fill="#477A71"/>
<rect x="72" y="9" width="3" height="26" fill="#477A71"/>
<path d="M25.9773 14.2727V23H24.9545L20.1989 16.1477H20.1136V23H19.0568V14.2727H20.0795L24.8523 21.142H24.9375V14.2727H25.9773ZM29.1488 14.2727V23H28.092V14.2727H29.1488ZM31.6257 14.2727L34.2166 21.6193H34.3189L36.9098 14.2727H38.0178L34.8132 23H33.7223L30.5178 14.2727H31.6257ZM39.3771 23V14.2727H44.6442V15.2102H40.4339V18.1591H44.3714V19.0966H40.4339V22.0625H44.7124V23H39.3771ZM46.549 23V14.2727H47.6058V18.6023H47.7081L51.6286 14.2727H53.0092L49.3445 18.2102L53.0092 23H51.7308L48.6967 18.9432L47.6058 20.1705V23H46.549ZM59.1499 16.4545C59.0987 16.0227 58.8913 15.6875 58.5277 15.4489C58.1641 15.2102 57.718 15.0909 57.1896 15.0909C56.8033 15.0909 56.4652 15.1534 56.1754 15.2784C55.8885 15.4034 55.6641 15.5753 55.5021 15.794C55.343 16.0128 55.2635 16.2614 55.2635 16.5398C55.2635 16.7727 55.3189 16.973 55.4297 17.1406C55.5433 17.3054 55.6882 17.4432 55.8643 17.554C56.0405 17.6619 56.2251 17.7514 56.4183 17.8224C56.6115 17.8906 56.7891 17.946 56.951 17.9886L57.8374 18.2273C58.0646 18.2869 58.3175 18.3693 58.5959 18.4744C58.8771 18.5795 59.1456 18.723 59.4013 18.9048C59.6598 19.0838 59.8729 19.3139 60.0405 19.5952C60.2081 19.8764 60.2919 20.2216 60.2919 20.6307C60.2919 21.1023 60.1683 21.5284 59.9212 21.9091C59.6768 22.2898 59.3189 22.5923 58.8473 22.8168C58.3786 23.0412 57.8089 23.1534 57.1385 23.1534C56.5135 23.1534 55.9723 23.0526 55.5149 22.8509C55.0604 22.6491 54.7024 22.3679 54.4411 22.0071C54.1825 21.6463 54.0362 21.2273 54.0021 20.75H55.093C55.1214 21.0795 55.2322 21.3523 55.4254 21.5682C55.6214 21.7812 55.8686 21.9403 56.1669 22.0455C56.468 22.1477 56.7919 22.1989 57.1385 22.1989C57.5419 22.1989 57.9041 22.1335 58.2251 22.0028C58.5462 21.8693 58.8004 21.6847 58.9879 21.4489C59.1754 21.2102 59.2692 20.9318 59.2692 20.6136C59.2692 20.3239 59.1882 20.0881 59.0263 19.9062C58.8643 19.7244 58.6513 19.5767 58.3871 19.4631C58.1229 19.3494 57.8374 19.25 57.5305 19.1648L56.4567 18.858C55.7749 18.6619 55.2351 18.3821 54.8374 18.0185C54.4396 17.6548 54.2408 17.179 54.2408 16.5909C54.2408 16.1023 54.3729 15.6761 54.6371 15.3125C54.9041 14.946 55.2621 14.6619 55.7109 14.4602C56.1626 14.2557 56.6669 14.1534 57.2237 14.1534C57.7862 14.1534 58.2862 14.2543 58.7237 14.456C59.1612 14.6548 59.5078 14.9276 59.7635 15.2741C60.022 15.6207 60.1584 16.0142 60.1726 16.4545H59.1499Z" fill="#395E58"/>
</svg>
